<?xml version="1.0" encoding="utf-8"?>
<!-- Generator: Adobe Illustrator 27.0.0, SVG Export Plug-In . SVG Version: 6.00 Build 0)  -->
<svg version="1.1" id="Layer_1" xmlns="http://www.w3.org/2000/svg" xmlns:xlink="http://www.w3.org/1999/xlink" x="0px" y="0px"
	 viewBox="0 0 96.52 94.6" style="enable-background:new 0 0 96.52 94.6;" xml:space="preserve">
<style type="text/css">
	.st0{fill:#EE1E5C;}
	.st1{fill:#41BBEC;}
	.st2{fill:#FFFFFF;}
</style>
<g>
	<g>
		<g>
			<path class="st0" d="M87.39,33.86h-8.85c-0.48,0-0.87-0.39-0.87-0.87s0.39-0.87,0.87-0.87h8.85c0.48,0,0.87,0.39,0.87,0.87
				S87.86,33.86,87.39,33.86z"/>
		</g>
		<g>
			<path class="st0" d="M88.68,47.71h-7.3c-0.48,0-0.87-0.39-0.87-0.87s0.39-0.87,0.87-0.87h7.3c0.48,0,0.87,0.39,0.87,0.87
				S89.16,47.71,88.68,47.71z"/>
		</g>
		<g>
			<path class="st0" d="M91.18,50.35h-3.71c-0.48,0-0.87-0.39-0.87-0.87s0.39-0.87,0.87-0.87h3.71c0.48,0,0.87,0.39,0.87,0.87
				S91.66,50.35,91.18,50.35z"/>
		</g>
		<g>
			<path class="st0" d="M84.85,26.26h-1.5c-0.48,0-0.87-0.39-0.87-0.87c0-0.48,0.39-0.87,0.87-0.87h1.5c0.48,0,0.87,0.39,0.87,0.87
				C85.72,25.87,85.33,26.26,84.85,26.26z"/>
		</g>
		<g>
			<path class="st0" d="M80.6,26.26h-5.25c-0.48,0-0.87-0.39-0.87-0.87c0-0.48,0.39-0.87,0.87-0.87h5.25c0.48,0,0.87,0.39,0.87,0.87
				C81.46,25.87,81.07,26.26,80.6,26.26z"/>
		</g>
		<g>
			<path class="st1" d="M10.6,53.43H5.35c-0.48,0-0.87-0.39-0.87-0.87c0-0.48,0.39-0.87,0.87-0.87h5.25c0.48,0,0.87,0.39,0.87,0.87
				C11.47,53.04,11.08,53.43,10.6,53.43z"/>
		</g>
		<g>
			<path class="st1" d="M13.42,35.94H8.17c-0.48,0-0.87-0.39-0.87-0.87c0-0.48,0.39-0.87,0.87-0.87h5.25c0.48,0,0.87,0.39,0.87,0.87
				C14.29,35.56,13.9,35.94,13.42,35.94z"/>
		</g>
		<g>
			<path class="st1" d="M21.8,27.77H10.79c-0.48,0-0.87-0.39-0.87-0.87c0-0.48,0.39-0.87,0.87-0.87H21.8c0.48,0,0.87,0.39,0.87,0.87
				C22.67,27.38,22.28,27.77,21.8,27.77z"/>
		</g>
		<g>
			<path class="st1" d="M18.88,69.87h-5.73c-0.48,0-0.87-0.39-0.87-0.87c0-0.48,0.39-0.87,0.87-0.87h5.73
				c0.48,0,0.87,0.39,0.87,0.87C19.75,69.49,19.36,69.87,18.88,69.87z"/>
		</g>
		<g>
			<path class="st1" d="M9.83,69.87H8.17c-0.48,0-0.87-0.39-0.87-0.87c0-0.48,0.39-0.87,0.87-0.87h1.66c0.48,0,0.87,0.39,0.87,0.87
				C10.69,69.49,10.3,69.87,9.83,69.87z"/>
		</g>
		<g>
			<path class="st0" d="M88.03,66.43H77.9c-0.48,0-0.87-0.39-0.87-0.87c0-0.48,0.39-0.87,0.87-0.87h10.13
				c0.48,0,0.87,0.39,0.87,0.87C88.9,66.04,88.51,66.43,88.03,66.43z"/>
		</g>
		<g>
			<path class="st0" d="M83.18,70.07h-7.84c-0.48,0-0.87-0.39-0.87-0.87c0-0.48,0.39-0.87,0.87-0.87h7.84
				c0.48,0,0.87,0.39,0.87,0.87C84.05,69.68,83.66,70.07,83.18,70.07z"/>
		</g>
	</g>
	<g>
		<g>
			<g>
				<path class="st1" d="M46.5,70.73c8.67,0,15.73-6.37,15.73-14.2c0-0.73-0.59-1.32-1.32-1.32c-0.73,0-1.32,0.59-1.32,1.32
					c0,6.38-5.87,11.56-13.09,11.56s-13.09-5.19-13.09-11.56c0-0.73-0.59-1.32-1.32-1.32c-0.73,0-1.32,0.59-1.32,1.32
					C30.77,64.36,37.83,70.73,46.5,70.73z"/>
			</g>
			<g>
				<path class="st1" d="M46.5,82.94c-20.14,0-36.52-16.38-36.52-36.52C9.98,26.28,26.36,9.9,46.5,9.9
					c20.14,0,36.52,16.38,36.52,36.52C83.02,66.56,66.64,82.94,46.5,82.94z M46.5,12.54c-18.68,0-33.88,15.2-33.88,33.88
					c0,18.68,15.2,33.88,33.88,33.88c18.68,0,33.88-15.2,33.88-33.88C80.38,27.74,65.18,12.54,46.5,12.54z"/>
			</g>
			<g>
				<path class="st1" d="M24.24,35.64c-0.13-1.49,0.29-2.87,1.18-3.89c0.8-0.92,1.91-1.46,3.12-1.52c1.68-0.09,2.81,0.77,3.41,1.38
					c0.59-0.62,1.72-1.47,3.41-1.38c1.21,0.06,2.32,0.6,3.12,1.52c0.89,1.02,1.31,2.4,1.18,3.89c-0.24,2.75-4.02,6.75-7.41,8.75
					c-0.09,0.05-0.19,0.08-0.29,0.08c-0.1,0-0.2-0.03-0.29-0.08C28.27,42.39,24.48,38.4,24.24,35.64z M67.27,35.64
					c-0.24,2.75-4.02,6.75-7.41,8.75c-0.09,0.05-0.19,0.08-0.29,0.08s-0.2-0.03-0.29-0.08c-3.39-2-7.18-6-7.41-8.75
					c-0.13-1.49,0.29-2.87,1.18-3.89c0.8-0.92,1.91-1.46,3.12-1.52c1.68-0.09,2.81,0.77,3.41,1.38c0.59-0.62,1.72-1.47,3.41-1.38
					c1.21,0.06,2.32,0.6,3.12,1.52C66.98,32.77,67.4,34.15,67.27,35.64z"/>
			</g>
		</g>
		<g>
			<g>
				<path class="st0" d="M50.02,72.5c8.67,0,15.73-6.37,15.73-14.2c0-0.73-0.59-1.32-1.32-1.32c-0.73,0-1.32,0.59-1.32,1.32
					c0,6.38-5.87,11.56-13.09,11.56c-7.22,0-13.09-5.19-13.09-11.56c0-0.73-0.59-1.32-1.32-1.32c-0.73,0-1.32,0.59-1.32,1.32
					C34.29,66.12,41.35,72.5,50.02,72.5z"/>
			</g>
			<g>
				<path class="st0" d="M50.02,84.7c-20.14,0-36.52-16.38-36.52-36.52s16.38-36.52,36.52-36.52c20.14,0,36.52,16.38,36.52,36.52
					S70.16,84.7,50.02,84.7z M50.02,14.3c-18.68,0-33.88,15.2-33.88,33.88s15.2,33.88,33.88,33.88c18.68,0,33.88-15.2,33.88-33.88
					S68.7,14.3,50.02,14.3z"/>
			</g>
			<g>
				<path class="st0" d="M27.77,37.4c-0.13-1.49,0.29-2.87,1.18-3.89c0.8-0.92,1.91-1.46,3.12-1.52c1.68-0.09,2.81,0.77,3.41,1.38
					c0.59-0.62,1.72-1.47,3.41-1.38c1.21,0.06,2.32,0.6,3.12,1.52c0.89,1.02,1.31,2.4,1.18,3.89c-0.24,2.75-4.02,6.75-7.41,8.75
					c-0.09,0.05-0.19,0.08-0.29,0.08c-0.1,0-0.2-0.03-0.29-0.08C31.79,44.15,28,40.16,27.77,37.4z M70.79,37.4
					c-0.24,2.75-4.02,6.75-7.41,8.75c-0.09,0.05-0.19,0.08-0.29,0.08c-0.1,0-0.2-0.03-0.29-0.08c-3.39-2-7.18-6-7.41-8.75
					c-0.13-1.49,0.29-2.87,1.18-3.89c0.8-0.92,1.91-1.46,3.12-1.52c1.68-0.09,2.81,0.77,3.41,1.38c0.59-0.62,1.72-1.47,3.41-1.38
					c1.21,0.06,2.32,0.6,3.12,1.52C70.5,34.53,70.92,35.91,70.79,37.4z"/>
			</g>
		</g>
		<g>
			<g>
				<path class="st2" d="M48.26,71.62c8.67,0,15.73-6.37,15.73-14.2c0-0.73-0.59-1.32-1.32-1.32c-0.73,0-1.32,0.59-1.32,1.32
					c0,6.38-5.87,11.56-13.09,11.56c-7.22,0-13.09-5.19-13.09-11.56c0-0.73-0.59-1.32-1.32-1.32c-0.73,0-1.32,0.59-1.32,1.32
					C32.53,65.24,39.59,71.62,48.26,71.62z"/>
			</g>
			<g>
				<path class="st2" d="M48.26,83.82c-20.14,0-36.52-16.38-36.52-36.52s16.38-36.52,36.52-36.52c20.14,0,36.52,16.38,36.52,36.52
					S68.4,83.82,48.26,83.82z M48.26,13.42c-18.68,0-33.88,15.2-33.88,33.88s15.2,33.88,33.88,33.88c18.68,0,33.88-15.2,33.88-33.88
					S66.94,13.42,48.26,13.42z"/>
			</g>
			<g>
				<path class="st2" d="M26,36.52c-0.13-1.49,0.29-2.87,1.18-3.89c0.8-0.92,1.91-1.46,3.12-1.52c1.68-0.09,2.81,0.77,3.41,1.38
					c0.59-0.62,1.72-1.47,3.41-1.38c1.21,0.06,2.32,0.6,3.12,1.52c0.89,1.02,1.31,2.4,1.18,3.89c-0.24,2.75-4.02,6.75-7.41,8.75
					c-0.09,0.05-0.19,0.08-0.29,0.08c-0.1,0-0.2-0.03-0.29-0.08C30.03,43.27,26.24,39.28,26,36.52z M69.03,36.52
					c-0.24,2.75-4.02,6.75-7.41,8.75c-0.09,0.05-0.19,0.08-0.29,0.08c-0.1,0-0.2-0.03-0.29-0.08c-3.39-2-7.18-6-7.41-8.75
					c-0.13-1.49,0.29-2.87,1.18-3.89c0.8-0.92,1.91-1.46,3.12-1.52c1.68-0.09,2.81,0.77,3.41,1.38c0.59-0.62,1.72-1.47,3.41-1.38
					c1.21,0.06,2.32,0.6,3.12,1.52C68.74,33.65,69.16,35.03,69.03,36.52z"/>
			</g>
		</g>
	</g>
	<g>
		<g>
			<path class="st2" d="M83.1,30.42h-8.17c-0.5,0-0.91-0.41-0.91-0.91c0-0.5,0.41-0.91,0.91-0.91h8.17c0.5,0,0.91,0.41,0.91,0.91
				C84.02,30.01,83.61,30.42,83.1,30.42z"/>
		</g>
		<g>
			<path class="st2" d="M17.91,57.95H7.55c-0.5,0-0.91-0.41-0.91-0.91c0-0.5,0.41-0.91,0.91-0.91h10.36c0.5,0,0.91,0.41,0.91,0.91
				C18.82,57.54,18.41,57.95,17.91,57.95z"/>
		</g>
		<g>
			<path class="st2" d="M30.25,23.78h-9.4c-0.5,0-0.91-0.41-0.91-0.91c0-0.5,0.41-0.91,0.91-0.91h9.4c0.5,0,0.91,0.41,0.91,0.91
				C31.17,23.37,30.76,23.78,30.25,23.78z"/>
		</g>
		<g>
			<path class="st2" d="M19.05,40.34H8.73c-0.5,0-0.91-0.41-0.91-0.91c0-0.5,0.41-0.91,0.91-0.91h10.32c0.5,0,0.91,0.41,0.91,0.91
				C19.97,39.93,19.56,40.34,19.05,40.34z"/>
		</g>
		<g>
			<path class="st2" d="M20.56,20.98h-3.72c-0.5,0-0.91-0.41-0.91-0.91c0-0.51,0.41-0.91,0.91-0.91h3.72c0.5,0,0.91,0.41,0.91,0.91
				C21.48,20.58,21.07,20.98,20.56,20.98z"/>
		</g>
		<g>
			<path class="st2" d="M79.28,75.08H67.63c-0.5,0-0.91-0.41-0.91-0.91c0-0.5,0.41-0.91,0.91-0.91h11.65c0.5,0,0.91,0.41,0.91,0.91
				C80.19,74.67,79.78,75.08,79.28,75.08z"/>
		</g>
		<g>
			<path class="st2" d="M88.4,43.62h-8.47c-0.5,0-0.91-0.41-0.91-0.91c0-0.5,0.41-0.91,0.91-0.91h8.47c0.5,0,0.91,0.41,0.91,0.91
				C89.32,43.21,88.91,43.62,88.4,43.62z"/>
		</g>
		<g>
			<path class="st2" d="M91.72,59H76.24c-0.5,0-0.91-0.41-0.91-0.91c0-0.51,0.41-0.91,0.91-0.91h15.48c0.5,0,0.91,0.41,0.91,0.91
				C92.64,58.59,92.23,59,91.72,59z"/>
		</g>
		<g>
			<path class="st2" d="M83.92,75.08h-1.38c-0.5,0-0.91-0.41-0.91-0.91c0-0.5,0.41-0.91,0.91-0.91h1.38c0.5,0,0.91,0.41,0.91,0.91
				C84.84,74.67,84.43,75.08,83.92,75.08z"/>
		</g>
		<g>
			<path class="st2" d="M86.14,62.06h-3.98c-0.5,0-0.91-0.41-0.91-0.91c0-0.5,0.41-0.91,0.91-0.91h3.98c0.51,0,0.91,0.41,0.91,0.91
				C87.05,61.65,86.65,62.06,86.14,62.06z"/>
		</g>
		<g>
			<path class="st2" d="M15.56,43.62H9.75c-0.5,0-0.91-0.41-0.91-0.91c0-0.5,0.41-0.91,0.91-0.91h5.81c0.5,0,0.91,0.41,0.91,0.91
				C16.47,43.21,16.06,43.62,15.56,43.62z"/>
		</g>
		<g>
			<path class="st2" d="M17.91,66.4H12.1c-0.5,0-0.91-0.41-0.91-0.91c0-0.5,0.41-0.91,0.91-0.91h5.81c0.5,0,0.91,0.41,0.91,0.91
				C18.82,66,18.41,66.4,17.91,66.4z"/>
		</g>
		<g>
			<path class="st2" d="M76.12,19.09h-7.94c-0.51,0-0.91-0.41-0.91-0.91s0.41-0.91,0.91-0.91h7.94c0.5,0,0.91,0.41,0.91,0.91
				S76.63,19.09,76.12,19.09z"/>
		</g>
		<g>
			<path class="st2" d="M27.37,77.34h-9.8c-0.5,0-0.91-0.41-0.91-0.91c0-0.51,0.41-0.91,0.91-0.91h9.8c0.5,0,0.91,0.41,0.91,0.91
				C28.28,76.93,27.87,77.34,27.37,77.34z"/>
		</g>
		<g>
			<path class="st2" d="M6.01,40.45H4.8c-0.5,0-0.91-0.41-0.91-0.91c0-0.51,0.41-0.91,0.91-0.91h1.2c0.5,0,0.91,0.41,0.91,0.91
				C6.92,40.04,6.51,40.45,6.01,40.45z"/>
		</g>
	</g>
</g>
</svg>
