<?xml version="1.0" encoding="utf-8"?>
<!-- Generator: Adobe Illustrator 27.0.0, SVG Export Plug-In . SVG Version: 6.00 Build 0)  -->
<svg version="1.1" id="Layer_1" xmlns="http://www.w3.org/2000/svg" xmlns:xlink="http://www.w3.org/1999/xlink" x="0px" y="0px"
	 viewBox="0 0 96.52 94.6" style="enable-background:new 0 0 96.52 94.6;" xml:space="preserve">
<style type="text/css">
	.st0{fill:#EE1E5C;}
	.st1{fill:#41BBEC;}
	.st2{fill:#FFFFFF;}
</style>
<g>
	<g>
		<g>
			<path class="st0" d="M87.39,33.86h-8.85c-0.48,0-0.87-0.39-0.87-0.87c0-0.48,0.39-0.87,0.87-0.87h8.85
				c0.48,0,0.87,0.39,0.87,0.87C88.25,33.47,87.86,33.86,87.39,33.86z"/>
		</g>
		<g>
			<path class="st0" d="M88.68,47.71h-7.3c-0.48,0-0.87-0.39-0.87-0.87c0-0.48,0.39-0.87,0.87-0.87h7.3c0.48,0,0.87,0.39,0.87,0.87
				C89.55,47.32,89.16,47.71,88.68,47.71z"/>
		</g>
		<g>
			<path class="st0" d="M91.18,50.35h-3.71c-0.48,0-0.87-0.39-0.87-0.87s0.39-0.87,0.87-0.87h3.71c0.48,0,0.87,0.39,0.87,0.87
				S91.66,50.35,91.18,50.35z"/>
		</g>
		<g>
			<path class="st0" d="M84.85,26.26h-1.5c-0.48,0-0.87-0.39-0.87-0.87c0-0.48,0.39-0.87,0.87-0.87h1.5c0.48,0,0.87,0.39,0.87,0.87
				C85.72,25.87,85.33,26.26,84.85,26.26z"/>
		</g>
		<g>
			<path class="st0" d="M80.6,26.26h-5.25c-0.48,0-0.87-0.39-0.87-0.87c0-0.48,0.39-0.87,0.87-0.87h5.25c0.48,0,0.87,0.39,0.87,0.87
				C81.46,25.87,81.07,26.26,80.6,26.26z"/>
		</g>
		<g>
			<path class="st1" d="M10.6,53.43H5.35c-0.48,0-0.87-0.39-0.87-0.87s0.39-0.87,0.87-0.87h5.25c0.48,0,0.87,0.39,0.87,0.87
				S11.08,53.43,10.6,53.43z"/>
		</g>
		<g>
			<path class="st1" d="M13.42,35.94H8.17c-0.48,0-0.87-0.39-0.87-0.87c0-0.48,0.39-0.87,0.87-0.87h5.25c0.48,0,0.87,0.39,0.87,0.87
				C14.29,35.56,13.9,35.94,13.42,35.94z"/>
		</g>
		<g>
			<path class="st1" d="M21.8,27.77H10.79c-0.48,0-0.87-0.39-0.87-0.87c0-0.48,0.39-0.87,0.87-0.87H21.8c0.48,0,0.87,0.39,0.87,0.87
				C22.67,27.38,22.28,27.77,21.8,27.77z"/>
		</g>
		<g>
			<path class="st1" d="M18.88,69.87h-5.73c-0.48,0-0.87-0.39-0.87-0.87c0-0.48,0.39-0.87,0.87-0.87h5.73
				c0.48,0,0.87,0.39,0.87,0.87C19.75,69.49,19.36,69.87,18.88,69.87z"/>
		</g>
		<g>
			<path class="st1" d="M9.83,69.87H8.17c-0.48,0-0.87-0.39-0.87-0.87c0-0.48,0.39-0.87,0.87-0.87h1.66c0.48,0,0.87,0.39,0.87,0.87
				C10.69,69.49,10.3,69.87,9.83,69.87z"/>
		</g>
		<g>
			<path class="st0" d="M88.03,66.43H77.9c-0.48,0-0.87-0.39-0.87-0.87c0-0.48,0.39-0.87,0.87-0.87h10.13
				c0.48,0,0.87,0.39,0.87,0.87C88.9,66.04,88.51,66.43,88.03,66.43z"/>
		</g>
		<g>
			<path class="st0" d="M83.18,70.07h-7.84c-0.48,0-0.87-0.39-0.87-0.87c0-0.48,0.39-0.87,0.87-0.87h7.84
				c0.48,0,0.87,0.39,0.87,0.87C84.05,69.68,83.66,70.07,83.18,70.07z"/>
		</g>
	</g>
	<g>
		<g>
			<g>
				<path class="st1" d="M46.5,53.36c-8.67,0-15.73,6.37-15.73,14.2c0,0.73,0.59,1.32,1.32,1.32c0.73,0,1.32-0.59,1.32-1.32
					C33.41,61.18,39.28,56,46.5,56s13.09,5.19,13.09,11.56c0,0.73,0.59,1.32,1.32,1.32c0.73,0,1.32-0.59,1.32-1.32
					C62.23,59.73,55.17,53.36,46.5,53.36z"/>
			</g>
			<g>
				<path class="st1" d="M46.5,82.94c-20.14,0-36.52-16.38-36.52-36.52C9.98,26.28,26.36,9.9,46.5,9.9
					c20.14,0,36.52,16.38,36.52,36.52C83.02,66.56,66.64,82.94,46.5,82.94z M46.5,12.54c-18.68,0-33.88,15.2-33.88,33.88
					c0,18.68,15.2,33.88,33.88,33.88c18.68,0,33.88-15.2,33.88-33.88C80.38,27.74,65.18,12.54,46.5,12.54z"/>
			</g>
			<g>
				<path class="st1" d="M39.38,31.67c-0.69-0.69-1.8-0.69-2.49,0l-3.99,3.99l-3.99-3.99c-0.69-0.69-1.8-0.69-2.49,0
					c-0.69,0.69-0.69,1.8,0,2.49l3.99,3.99l-3.99,3.99c-0.69,0.69-0.69,1.8,0,2.49c0.34,0.34,0.79,0.52,1.24,0.52
					c0.45,0,0.9-0.17,1.24-0.52l3.99-3.99l3.99,3.99c0.34,0.34,0.79,0.52,1.24,0.52c0.45,0,0.9-0.17,1.24-0.52
					c0.69-0.69,0.69-1.8,0-2.49l-3.99-3.99l3.99-3.99C40.07,33.47,40.07,32.36,39.38,31.67z"/>
				<path class="st1" d="M62.59,38.15l3.99-3.99c0.69-0.69,0.69-1.8,0-2.49c-0.69-0.69-1.8-0.69-2.49,0l-3.99,3.99l-3.99-3.99
					c-0.69-0.69-1.8-0.69-2.49,0c-0.69,0.69-0.69,1.8,0,2.49l3.99,3.99l-3.99,3.99c-0.69,0.69-0.69,1.8,0,2.49
					c0.34,0.34,0.79,0.52,1.24,0.52c0.45,0,0.9-0.17,1.24-0.52l3.99-3.99l3.99,3.99c0.34,0.34,0.79,0.52,1.24,0.52
					s0.9-0.17,1.24-0.52c0.69-0.69,0.69-1.8,0-2.49L62.59,38.15z"/>
			</g>
		</g>
		<g>
			<g>
				<path class="st0" d="M50.02,55.12c-8.67,0-15.73,6.37-15.73,14.2c0,0.73,0.59,1.32,1.32,1.32c0.73,0,1.32-0.59,1.32-1.32
					c0-6.38,5.87-11.56,13.09-11.56c7.22,0,13.09,5.19,13.09,11.56c0,0.73,0.59,1.32,1.32,1.32c0.73,0,1.32-0.59,1.32-1.32
					C65.75,61.49,58.7,55.12,50.02,55.12z"/>
			</g>
			<g>
				<path class="st0" d="M50.02,84.7c-20.14,0-36.52-16.38-36.52-36.52c0-20.14,16.38-36.52,36.52-36.52
					c20.14,0,36.52,16.38,36.52,36.52C86.54,68.32,70.16,84.7,50.02,84.7z M50.02,14.3c-18.68,0-33.88,15.2-33.88,33.88
					c0,18.68,15.2,33.88,33.88,33.88c18.68,0,33.88-15.2,33.88-33.88C83.9,29.5,68.7,14.3,50.02,14.3z"/>
			</g>
			<g>
				<path class="st0" d="M42.9,33.43c-0.69-0.69-1.8-0.69-2.49,0l-3.99,3.99l-3.99-3.99c-0.69-0.69-1.8-0.69-2.49,0
					c-0.69,0.69-0.69,1.8,0,2.49l3.99,3.99l-3.99,3.99c-0.69,0.69-0.69,1.8,0,2.49c0.34,0.34,0.79,0.52,1.24,0.52
					c0.45,0,0.9-0.17,1.24-0.52l3.99-3.99l3.99,3.99c0.34,0.34,0.79,0.52,1.24,0.52c0.45,0,0.9-0.17,1.24-0.52
					c0.69-0.69,0.69-1.8,0-2.49l-3.99-3.99l3.99-3.99C43.59,35.24,43.59,34.12,42.9,33.43z"/>
				<path class="st0" d="M66.11,39.91l3.99-3.99c0.69-0.69,0.69-1.8,0-2.49c-0.69-0.69-1.8-0.69-2.49,0l-3.99,3.99l-3.99-3.99
					c-0.69-0.69-1.8-0.69-2.49,0c-0.69,0.69-0.69,1.8,0,2.49l3.99,3.99l-3.99,3.99c-0.69,0.69-0.69,1.8,0,2.49
					c0.34,0.34,0.79,0.52,1.24,0.52c0.45,0,0.9-0.17,1.24-0.52l3.99-3.99l3.99,3.99c0.34,0.34,0.79,0.52,1.24,0.52
					c0.45,0,0.9-0.17,1.24-0.52c0.69-0.69,0.69-1.8,0-2.49L66.11,39.91z"/>
			</g>
		</g>
		<g>
			<g>
				<path class="st2" d="M48.26,54.24c-8.67,0-15.73,6.37-15.73,14.2c0,0.73,0.59,1.32,1.32,1.32c0.73,0,1.32-0.59,1.32-1.32
					c0-6.38,5.87-11.56,13.09-11.56c7.22,0,13.09,5.19,13.09,11.56c0,0.73,0.59,1.32,1.32,1.32c0.73,0,1.32-0.59,1.32-1.32
					C63.99,60.61,56.94,54.24,48.26,54.24z"/>
			</g>
			<g>
				<path class="st2" d="M48.26,83.82c-20.14,0-36.52-16.38-36.52-36.52c0-20.14,16.38-36.52,36.52-36.52
					c20.14,0,36.52,16.38,36.52,36.52C84.78,67.44,68.4,83.82,48.26,83.82z M48.26,13.42c-18.68,0-33.88,15.2-33.88,33.88
					c0,18.68,15.2,33.88,33.88,33.88c18.68,0,33.88-15.2,33.88-33.88C82.14,28.62,66.94,13.42,48.26,13.42z"/>
			</g>
			<g>
				<path class="st2" d="M41.14,32.55c-0.69-0.69-1.8-0.69-2.49,0l-3.99,3.99l-3.99-3.99c-0.69-0.69-1.8-0.69-2.49,0
					c-0.69,0.69-0.69,1.8,0,2.49l3.99,3.99l-3.99,3.99c-0.69,0.69-0.69,1.8,0,2.49c0.34,0.34,0.79,0.52,1.24,0.52
					c0.45,0,0.9-0.17,1.24-0.52l3.99-3.99l3.99,3.99c0.34,0.34,0.79,0.52,1.24,0.52c0.45,0,0.9-0.17,1.24-0.52
					c0.69-0.69,0.69-1.8,0-2.49l-3.99-3.99l3.99-3.99C41.83,34.35,41.83,33.24,41.14,32.55z"/>
				<path class="st2" d="M64.35,39.03l3.99-3.99c0.69-0.69,0.69-1.8,0-2.49c-0.69-0.69-1.8-0.69-2.49,0l-3.99,3.99l-3.99-3.99
					c-0.69-0.69-1.8-0.69-2.49,0c-0.69,0.69-0.69,1.8,0,2.49l3.99,3.99l-3.99,3.99c-0.69,0.69-0.69,1.8,0,2.49
					c0.34,0.34,0.79,0.52,1.24,0.52c0.45,0,0.9-0.17,1.24-0.52l3.99-3.99l3.99,3.99c0.34,0.34,0.79,0.52,1.24,0.52
					c0.45,0,0.9-0.17,1.24-0.52c0.69-0.69,0.69-1.8,0-2.49L64.35,39.03z"/>
			</g>
		</g>
	</g>
	<g>
		<g>
			<path class="st2" d="M83.1,30.42h-8.17c-0.5,0-0.91-0.41-0.91-0.91s0.41-0.91,0.91-0.91h8.17c0.5,0,0.91,0.41,0.91,0.91
				S83.61,30.42,83.1,30.42z"/>
		</g>
		<g>
			<path class="st2" d="M17.91,57.95H7.55c-0.5,0-0.91-0.41-0.91-0.91c0-0.5,0.41-0.91,0.91-0.91h10.36c0.5,0,0.91,0.41,0.91,0.91
				C18.82,57.54,18.41,57.95,17.91,57.95z"/>
		</g>
		<g>
			<path class="st2" d="M30.25,23.78h-9.4c-0.5,0-0.91-0.41-0.91-0.91s0.41-0.91,0.91-0.91h9.4c0.5,0,0.91,0.41,0.91,0.91
				S30.76,23.78,30.25,23.78z"/>
		</g>
		<g>
			<path class="st2" d="M19.05,40.33H8.73c-0.5,0-0.91-0.41-0.91-0.91c0-0.5,0.41-0.91,0.91-0.91h10.32c0.5,0,0.91,0.41,0.91,0.91
				C19.97,39.93,19.56,40.33,19.05,40.33z"/>
		</g>
		<g>
			<path class="st2" d="M20.56,20.98h-3.72c-0.5,0-0.91-0.41-0.91-0.91c0-0.5,0.41-0.91,0.91-0.91h3.72c0.5,0,0.91,0.41,0.91,0.91
				C21.48,20.57,21.07,20.98,20.56,20.98z"/>
		</g>
		<g>
			<path class="st2" d="M79.28,75.08H67.63c-0.5,0-0.91-0.41-0.91-0.91c0-0.5,0.41-0.91,0.91-0.91h11.65c0.5,0,0.91,0.41,0.91,0.91
				C80.19,74.67,79.78,75.08,79.28,75.08z"/>
		</g>
		<g>
			<path class="st2" d="M88.4,43.62h-8.47c-0.5,0-0.91-0.41-0.91-0.91c0-0.5,0.41-0.91,0.91-0.91h8.47c0.5,0,0.91,0.41,0.91,0.91
				C89.32,43.21,88.91,43.62,88.4,43.62z"/>
		</g>
		<g>
			<path class="st2" d="M91.72,59H76.24c-0.5,0-0.91-0.41-0.91-0.91c0-0.5,0.41-0.91,0.91-0.91h15.48c0.5,0,0.91,0.41,0.91,0.91
				C92.64,58.59,92.23,59,91.72,59z"/>
		</g>
		<g>
			<path class="st2" d="M83.92,75.08h-1.38c-0.5,0-0.91-0.41-0.91-0.91c0-0.5,0.41-0.91,0.91-0.91h1.38c0.5,0,0.91,0.41,0.91,0.91
				C84.84,74.67,84.43,75.08,83.92,75.08z"/>
		</g>
		<g>
			<path class="st2" d="M86.14,62.06h-3.98c-0.5,0-0.91-0.41-0.91-0.91c0-0.5,0.41-0.91,0.91-0.91h3.98c0.51,0,0.91,0.41,0.91,0.91
				C87.05,61.65,86.65,62.06,86.14,62.06z"/>
		</g>
		<g>
			<path class="st2" d="M15.56,43.62H9.75c-0.5,0-0.91-0.41-0.91-0.91c0-0.5,0.41-0.91,0.91-0.91h5.81c0.5,0,0.91,0.41,0.91,0.91
				C16.47,43.21,16.06,43.62,15.56,43.62z"/>
		</g>
		<g>
			<path class="st2" d="M17.91,66.4H12.1c-0.5,0-0.91-0.41-0.91-0.91c0-0.5,0.41-0.91,0.91-0.91h5.81c0.5,0,0.91,0.41,0.91,0.91
				C18.82,66,18.41,66.4,17.91,66.4z"/>
		</g>
		<g>
			<path class="st2" d="M76.12,19.09h-7.94c-0.51,0-0.91-0.41-0.91-0.91c0-0.5,0.41-0.91,0.91-0.91h7.94c0.5,0,0.91,0.41,0.91,0.91
				C77.04,18.68,76.63,19.09,76.12,19.09z"/>
		</g>
		<g>
			<path class="st2" d="M27.37,77.34h-9.8c-0.5,0-0.91-0.41-0.91-0.91c0-0.5,0.41-0.91,0.91-0.91h9.8c0.5,0,0.91,0.41,0.91,0.91
				C28.28,76.93,27.87,77.34,27.37,77.34z"/>
		</g>
		<g>
			<path class="st2" d="M6.01,40.45H4.8c-0.5,0-0.91-0.41-0.91-0.91c0-0.5,0.41-0.91,0.91-0.91h1.2c0.5,0,0.91,0.41,0.91,0.91
				C6.92,40.04,6.51,40.45,6.01,40.45z"/>
		</g>
	</g>
</g>
</svg>
