<?xml version="1.0" encoding="utf-8"?>
<!-- Generator: Adobe Illustrator 27.0.0, SVG Export Plug-In . SVG Version: 6.00 Build 0)  -->
<svg version="1.1" id="Layer_1" xmlns="http://www.w3.org/2000/svg" xmlns:xlink="http://www.w3.org/1999/xlink" x="0px" y="0px"
	 viewBox="0 0 96.52 94.6" style="enable-background:new 0 0 96.52 94.6;" xml:space="preserve">
<style type="text/css">
	.st0{fill:#EE1E5C;}
	.st1{fill:#41BBEC;}
	.st2{fill:#FFFFFF;}
</style>
<g>
	<g>
		<g>
			<path class="st0" d="M86,35.74h-8.85c-0.48,0-0.87-0.39-0.87-0.87S76.67,34,77.15,34H86c0.48,0,0.87,0.39,0.87,0.87
				S86.48,35.74,86,35.74z"/>
		</g>
		<g>
			<path class="st0" d="M87.3,49.59H80c-0.48,0-0.87-0.39-0.87-0.87c0-0.48,0.39-0.87,0.87-0.87h7.3c0.48,0,0.87,0.39,0.87,0.87
				C88.17,49.2,87.78,49.59,87.3,49.59z"/>
		</g>
		<g>
			<path class="st0" d="M89.79,52.22h-3.71c-0.48,0-0.87-0.39-0.87-0.87c0-0.48,0.39-0.87,0.87-0.87h3.71
				c0.48,0,0.87,0.39,0.87,0.87C90.66,51.84,90.27,52.22,89.79,52.22z"/>
		</g>
		<g>
			<path class="st0" d="M83.47,28.14h-1.5c-0.48,0-0.87-0.39-0.87-0.87c0-0.48,0.39-0.87,0.87-0.87h1.5c0.48,0,0.87,0.39,0.87,0.87
				C84.34,27.75,83.95,28.14,83.47,28.14z"/>
		</g>
		<g>
			<path class="st0" d="M79.21,28.14h-5.25c-0.48,0-0.87-0.39-0.87-0.87c0-0.48,0.39-0.87,0.87-0.87h5.25
				c0.48,0,0.87,0.39,0.87,0.87C80.08,27.75,79.69,28.14,79.21,28.14z"/>
		</g>
		<g>
			<path class="st1" d="M9.22,55.31H3.96c-0.48,0-0.87-0.39-0.87-0.87c0-0.48,0.39-0.87,0.87-0.87h5.25c0.48,0,0.87,0.39,0.87,0.87
				C10.08,54.92,9.7,55.31,9.22,55.31z"/>
		</g>
		<g>
			<path class="st1" d="M12.03,37.82H6.78c-0.48,0-0.87-0.39-0.87-0.87c0-0.48,0.39-0.87,0.87-0.87h5.25c0.48,0,0.87,0.39,0.87,0.87
				C12.9,37.43,12.51,37.82,12.03,37.82z"/>
		</g>
		<g>
			<path class="st1" d="M20.41,29.64H9.41c-0.48,0-0.87-0.39-0.87-0.87c0-0.48,0.39-0.87,0.87-0.87h11.01
				c0.48,0,0.87,0.39,0.87,0.87C21.28,29.26,20.89,29.64,20.41,29.64z"/>
		</g>
		<g>
			<path class="st1" d="M17.49,71.75h-5.73c-0.48,0-0.87-0.39-0.87-0.87c0-0.48,0.39-0.87,0.87-0.87h5.73
				c0.48,0,0.87,0.39,0.87,0.87C18.36,71.36,17.97,71.75,17.49,71.75z"/>
		</g>
		<g>
			<path class="st1" d="M8.44,71.75H6.78c-0.48,0-0.87-0.39-0.87-0.87c0-0.48,0.39-0.87,0.87-0.87h1.66c0.48,0,0.87,0.39,0.87,0.87
				C9.31,71.36,8.92,71.75,8.44,71.75z"/>
		</g>
		<g>
			<path class="st0" d="M86.64,68.31H76.52c-0.48,0-0.87-0.39-0.87-0.87c0-0.48,0.39-0.87,0.87-0.87h10.13
				c0.48,0,0.87,0.39,0.87,0.87C87.51,67.92,87.12,68.31,86.64,68.31z"/>
		</g>
		<g>
			<path class="st0" d="M81.79,71.95h-7.84c-0.48,0-0.87-0.39-0.87-0.87c0-0.48,0.39-0.87,0.87-0.87h7.84
				c0.48,0,0.87,0.39,0.87,0.87C82.66,71.56,82.27,71.95,81.79,71.95z"/>
		</g>
	</g>
	<g>
		<g>
			<g>
				<path class="st1" d="M45.11,84.82c-20.14,0-36.52-16.38-36.52-36.52c0-20.14,16.38-36.52,36.52-36.52
					c20.14,0,36.52,16.38,36.52,36.52C81.63,68.43,65.25,84.82,45.11,84.82z M45.11,14.42c-18.68,0-33.88,15.2-33.88,33.88
					c0,18.68,15.2,33.88,33.88,33.88C63.8,82.18,79,66.98,79,48.3C79,29.61,63.8,14.42,45.11,14.42z"/>
			</g>
			<g>
				<g>
					<path class="st1" d="M38.42,43.99c0,2.22-1.8,4.02-4.02,4.02l0,0c-2.22,0-4.02-1.8-4.02-4.02v-8.97c0-2.22,1.8-4.02,4.02-4.02
						l0,0c2.22,0,4.02,1.8,4.02,4.02V43.99z"/>
				</g>
				<g>
					<path class="st1" d="M59.96,43.99c0,2.22-1.8,4.02-4.02,4.02l0,0c-2.22,0-4.02-1.8-4.02-4.02v-8.97c0-2.22,1.8-4.02,4.02-4.02
						l0,0c2.22,0,4.02,1.8,4.02,4.02V43.99z"/>
				</g>
			</g>
			<g>
				<path class="st1" d="M45.11,72.52c-8.67,0-15.73-6.37-15.73-14.2c0-0.73,0.59-1.32,1.32-1.32c0.73,0,1.32,0.59,1.32,1.32
					c0,6.38,5.87,11.56,13.09,11.56c7.22,0,13.09-5.19,13.09-11.56c0-0.73,0.59-1.32,1.32-1.32c0.73,0,1.32,0.59,1.32,1.32
					C60.84,66.15,53.79,72.52,45.11,72.52z"/>
			</g>
		</g>
		<g>
			<g>
				<path class="st0" d="M48.64,86.58c-20.14,0-36.52-16.38-36.52-36.52c0-20.14,16.38-36.52,36.52-36.52s36.52,16.38,36.52,36.52
					C85.16,70.19,68.77,86.58,48.64,86.58z M48.64,16.18c-18.68,0-33.88,15.2-33.88,33.88c0,18.68,15.2,33.88,33.88,33.88
					s33.88-15.2,33.88-33.88C82.52,31.38,67.32,16.18,48.64,16.18z"/>
			</g>
			<g>
				<g>
					<path class="st0" d="M41.83,45.69c0,2.22-1.8,4.02-4.02,4.02l0,0c-2.22,0-4.02-1.8-4.02-4.02v-8.97c0-2.22,1.8-4.02,4.02-4.02
						l0,0c2.22,0,4.02,1.8,4.02,4.02V45.69z"/>
				</g>
				<g>
					<path class="st0" d="M63.36,45.69c0,2.22-1.8,4.02-4.02,4.02l0,0c-2.22,0-4.02-1.8-4.02-4.02v-8.97c0-2.22,1.8-4.02,4.02-4.02
						l0,0c2.22,0,4.02,1.8,4.02,4.02V45.69z"/>
				</g>
			</g>
			<g>
				<path class="st0" d="M48.64,74.28c-8.67,0-15.73-6.37-15.73-14.2c0-0.73,0.59-1.32,1.32-1.32c0.73,0,1.32,0.59,1.32,1.32
					c0,6.38,5.87,11.56,13.09,11.56c7.22,0,13.09-5.19,13.09-11.56c0-0.73,0.59-1.32,1.32-1.32c0.73,0,1.32,0.59,1.32,1.32
					C64.37,67.91,57.31,74.28,48.64,74.28z"/>
			</g>
		</g>
		<g>
			<g>
				<path class="st2" d="M46.88,85.7c-20.14,0-36.52-16.38-36.52-36.52c0-20.14,16.38-36.52,36.52-36.52
					c20.14,0,36.52,16.38,36.52,36.52C83.4,69.31,67.01,85.7,46.88,85.7z M46.88,15.3C28.19,15.3,13,30.49,13,49.18
					c0,18.68,15.2,33.88,33.88,33.88c18.68,0,33.88-15.2,33.88-33.88C80.76,30.49,65.56,15.3,46.88,15.3z"/>
			</g>
			<g>
				<g>
					<path class="st2" d="M40.12,44.84c0,2.22-1.8,4.02-4.02,4.02l0,0c-2.22,0-4.02-1.8-4.02-4.02v-8.97c0-2.22,1.8-4.02,4.02-4.02
						l0,0c2.22,0,4.02,1.8,4.02,4.02V44.84z"/>
				</g>
				<g>
					<path class="st2" d="M61.66,44.84c0,2.22-1.8,4.02-4.02,4.02l0,0c-2.22,0-4.02-1.8-4.02-4.02v-8.97c0-2.22,1.8-4.02,4.02-4.02
						l0,0c2.22,0,4.02,1.8,4.02,4.02V44.84z"/>
				</g>
			</g>
			<g>
				<path class="st2" d="M46.88,73.4c-8.67,0-15.73-6.37-15.73-14.2c0-0.73,0.59-1.32,1.32-1.32c0.73,0,1.32,0.59,1.32,1.32
					c0,6.38,5.87,11.56,13.09,11.56c7.22,0,13.09-5.19,13.09-11.56c0-0.73,0.59-1.32,1.32-1.32s1.32,0.59,1.32,1.32
					C62.61,67.03,55.55,73.4,46.88,73.4z"/>
			</g>
		</g>
	</g>
	<g>
		<g>
			<path class="st2" d="M81.72,32.3h-8.17c-0.51,0-0.91-0.41-0.91-0.91s0.41-0.91,0.91-0.91h8.17c0.5,0,0.91,0.41,0.91,0.91
				S82.22,32.3,81.72,32.3z"/>
		</g>
		<g>
			<path class="st2" d="M16.52,59.82H6.16c-0.5,0-0.91-0.41-0.91-0.91c0-0.5,0.41-0.91,0.91-0.91h10.36c0.5,0,0.91,0.41,0.91,0.91
				C17.44,59.42,17.03,59.82,16.52,59.82z"/>
		</g>
		<g>
			<path class="st2" d="M28.87,25.66h-9.4c-0.5,0-0.91-0.41-0.91-0.91s0.41-0.91,0.91-0.91h9.4c0.5,0,0.91,0.41,0.91,0.91
				S29.37,25.66,28.87,25.66z"/>
		</g>
		<g>
			<path class="st2" d="M17.66,42.21H7.34c-0.5,0-0.91-0.41-0.91-0.91c0-0.5,0.41-0.91,0.91-0.91h10.32c0.5,0,0.91,0.41,0.91,0.91
				C18.58,41.8,18.17,42.21,17.66,42.21z"/>
		</g>
		<g>
			<path class="st2" d="M19.18,22.86h-3.72c-0.5,0-0.91-0.41-0.91-0.91c0-0.5,0.41-0.91,0.91-0.91h3.72c0.51,0,0.91,0.41,0.91,0.91
				C20.09,22.45,19.68,22.86,19.18,22.86z"/>
		</g>
		<g>
			<path class="st2" d="M77.89,76.96H66.24c-0.5,0-0.91-0.41-0.91-0.91c0-0.5,0.41-0.91,0.91-0.91h11.65c0.5,0,0.91,0.41,0.91,0.91
				C78.8,76.55,78.39,76.96,77.89,76.96z"/>
		</g>
		<g>
			<path class="st2" d="M87.01,45.49h-8.47c-0.5,0-0.91-0.41-0.91-0.91c0-0.5,0.41-0.91,0.91-0.91h8.47c0.5,0,0.91,0.41,0.91,0.91
				C87.93,45.08,87.52,45.49,87.01,45.49z"/>
		</g>
		<g>
			<path class="st2" d="M90.33,60.88H74.85c-0.5,0-0.91-0.41-0.91-0.91c0-0.51,0.41-0.91,0.91-0.91h15.48c0.5,0,0.91,0.41,0.91,0.91
				C91.25,60.47,90.84,60.88,90.33,60.88z"/>
		</g>
		<g>
			<path class="st2" d="M82.54,76.96h-1.38c-0.5,0-0.91-0.41-0.91-0.91c0-0.5,0.41-0.91,0.91-0.91h1.38c0.5,0,0.91,0.41,0.91,0.91
				C83.45,76.55,83.04,76.96,82.54,76.96z"/>
		</g>
		<g>
			<path class="st2" d="M84.75,63.93h-3.98c-0.5,0-0.91-0.41-0.91-0.91c0-0.5,0.41-0.91,0.91-0.91h3.98c0.51,0,0.91,0.41,0.91,0.91
				C85.67,63.53,85.26,63.93,84.75,63.93z"/>
		</g>
		<g>
			<path class="st2" d="M14.17,45.49H8.37c-0.5,0-0.91-0.41-0.91-0.91c0-0.5,0.41-0.91,0.91-0.91h5.81c0.5,0,0.91,0.41,0.91,0.91
				C15.09,45.08,14.68,45.49,14.17,45.49z"/>
		</g>
		<g>
			<path class="st2" d="M16.52,68.28h-5.81c-0.51,0-0.91-0.41-0.91-0.91c0-0.5,0.41-0.91,0.91-0.91h5.81c0.5,0,0.91,0.41,0.91,0.91
				C17.44,67.87,17.03,68.28,16.52,68.28z"/>
		</g>
		<g>
			<path class="st2" d="M74.74,20.97H66.8c-0.5,0-0.91-0.41-0.91-0.91c0-0.5,0.41-0.91,0.91-0.91h7.94c0.5,0,0.91,0.41,0.91,0.91
				C75.65,20.56,75.24,20.97,74.74,20.97z"/>
		</g>
		<g>
			<path class="st2" d="M25.98,79.21h-9.8c-0.5,0-0.91-0.41-0.91-0.91c0-0.5,0.41-0.91,0.91-0.91h9.8c0.5,0,0.91,0.41,0.91,0.91
				C26.89,78.81,26.49,79.21,25.98,79.21z"/>
		</g>
		<g>
			<path class="st2" d="M4.62,42.33h-1.2c-0.5,0-0.91-0.41-0.91-0.91c0-0.51,0.41-0.91,0.91-0.91h1.2c0.51,0,0.91,0.41,0.91,0.91
				C5.53,41.92,5.12,42.33,4.62,42.33z"/>
		</g>
	</g>
</g>
</svg>
